<?xml version="1.0" standalone="no"?><!DOCTYPE svg PUBLIC "-//W3C//DTD SVG 1.1//EN" "http://www.w3.org/Graphics/SVG/1.1/DTD/svg11.dtd"><svg t="1613959250206" class="icon" viewBox="0 0 1024 1024" version="1.1" xmlns="http://www.w3.org/2000/svg" p-id="3120" xmlns:xlink="http://www.w3.org/1999/xlink" width="200" height="200"><defs><style type="text/css"></style></defs><path d="M540.5 26C661.174 26 759 123.826 759 244.5V380h109c38.66 0 70 31.34 70 70v479c0 38.66-31.34 70-70 70H157c-38.66 0-70-31.34-70-70V450c0-38.66 31.34-70 70-70h109V244.5C266 123.826 363.826 26 484.5 26h56z m-28 552c-19.606 0-35.5 15.894-35.5 35.5v150c0 19.606 15.894 35.5 35.5 35.5s35.5-15.894 35.5-35.5v-150c0-19.606-15.894-35.5-35.5-35.5z m0-476c-85.021 0-154.106 68.234-155.48 152.929L357 257.5V380h311V257.5c0-85.88-69.62-155.5-155.5-155.5z" fill="#333333" p-id="3121"></path></svg>