<?xml version="1.0" standalone="no"?><!DOCTYPE svg PUBLIC "-//W3C//DTD SVG 1.1//EN" "http://www.w3.org/Graphics/SVG/1.1/DTD/svg11.dtd"><svg t="1613961239651" class="icon" viewBox="0 0 1024 1024" version="1.1" xmlns="http://www.w3.org/2000/svg" p-id="2109" xmlns:xlink="http://www.w3.org/1999/xlink" width="200" height="200"><defs><style type="text/css"></style></defs><path d="M511.570109 16.335852C238.15953 16.335852 16.335852 238.15953 16.335852 511.570109c0 273.410579 222.683459 496.094039 496.094039 496.094039 273.410579 0 496.094039-222.683459 496.094039-496.094039C1008.523929 238.15953 784.980688 16.335852 511.570109 16.335852zM695.563392 683.526448l92.856423 109.192275-45.56843 37.830395-101.45424-120.369437c-42.129303 18.055416-85.97817 29.232578-129.827036 29.232578-145.303107 0-297.484467-122.089001-360.248531-227.842149 36.110831-61.0445 101.45424-126.387909 177.115029-171.956339L235.580185 230.421495l45.56843-37.830395 102.314022 120.369437c42.129303-18.055416 85.97817-29.232578 128.967254-29.232578 145.303107 0 297.484467 122.089001 360.248531 227.842149C835.707809 571.754828 771.224181 637.958018 695.563392 683.526448z" p-id="2110"></path><path d="M633.65911 433.329975c0 27.513014-21.494542 49.007557-47.287993 49.007557-25.793451 0-47.287993-21.494542-47.287993-49.007557s21.494542-49.007557 47.287993-49.007557c4.298908 0 6.018472 1.719563 9.457599 1.719563-23.214106-18.055416-53.306465-27.513014-84.258606-27.513014-26.653233 0-51.586902 7.738035-73.081444 20.634761l189.151973 223.543241c18.055416-25.793451 29.232578-57.605374 29.232578-91.996641 0-33.531486-9.457599-62.764064-27.513014-88.557515C631.939547 427.311503 633.65911 430.75063 633.65911 433.329975z" p-id="2111"></path><path d="M366.267003 511.570109c0 84.258606 65.343409 153.041142 145.303107 153.041142 26.653233 0 51.586902-7.738035 72.221662-20.634761l-189.151973-223.543241C376.584383 445.366919 366.267003 477.178841 366.267003 511.570109z" p-id="2112"></path></svg>