<?xml version="1.0" standalone="no"?><!DOCTYPE svg PUBLIC "-//W3C//DTD SVG 1.1//EN" "http://www.w3.org/Graphics/SVG/1.1/DTD/svg11.dtd"><svg t="1613376326988" class="icon" viewBox="0 0 1024 1024" version="1.1" xmlns="http://www.w3.org/2000/svg" p-id="2174" xmlns:xlink="http://www.w3.org/1999/xlink" width="200" height="200"><defs><style type="text/css"></style></defs><path d="M325.456896 862.27968" p-id="2175"></path><path d="M882.05824 862.27968" p-id="2176"></path><path d="M236.027904 877.161472" p-id="2177"></path><path d="M960.132096 877.161472" p-id="2178"></path><path d="M63.683584 788.737024" p-id="2179"></path><path d="M958.46912 788.737024" p-id="2180"></path><path d="M81.267712 878.01344" p-id="2181"></path><path d="M1023.476736 878.01344" p-id="2182"></path><path d="M45.18912 877.850624" p-id="2183"></path><path d="M914.599936 960.0256c0-187.173888-88.768512-335.291392-221.159424-401.7408 63.405056-52.753408 102.463488-127.31392 102.463488-215.071744 0-154.192896-126.30528-279.990272-280.508416-279.990272-154.710016 0-280.497152 125.797376-280.497152 279.990272 0 89.783296 41.583616 167.899136 107.01824 218.622976C205.986816 629.807104 109.10208 774.372352 109.10208 960.0256L914.599936 960.0256z" p-id="2184"></path><path d="M978.502656 877.850624" p-id="2185"></path></svg>